<?xml version="1.0" standalone="no"?><!DOCTYPE svg PUBLIC "-//W3C//DTD SVG 1.1//EN" "http://www.w3.org/Graphics/SVG/1.1/DTD/svg11.dtd"><svg t="1565945895019" class="icon" viewBox="0 0 1024 1024" version="1.1" xmlns="http://www.w3.org/2000/svg" p-id="16787" xmlns:xlink="http://www.w3.org/1999/xlink" width="200" height="200"><defs><style type="text/css"></style></defs><path d="M885.4 420c-0.6-50.9-42.4-92.2-92.8-92.2H229.9c-50.9 0-92.8 41.8-92.8 92.8v462.1c0.6 50.9 42.4 92.2 92.8 92.2H792c40 0 74.6-26.1 87.3-61.9l3-9.1 1.2-7.3 1.2-17v-6.1l0.7-453.5zM576.8 604.4h1.8c7.3 1.2 15.8 0.6 23.6 0 14.6-1.2 27.3-1.2 39.4 3.6 10.9 5.5 13.3 16.4 12.7 25.5-1.2 9.1-7.3 20-18.8 22.4-16.4 1.8-32.7 1.8-49.1 1.2-9.7 0-20.6-0.6-30.3 0h-4.2v49.1h75.2c13.3-1.2 26.7 9.7 27.3 23.6 1.2 7.3-1.2 13.9-6.7 20s-12.7 9.7-21.2 9.1h-74.6v35.2c0 13.9 0 28.5-0.6 42.4 0 6.7-3.6 13.3-9.7 18.2-4.9 4.2-10.3 6.7-16.4 6.7h-2.4c-12.7-1.2-23.6-12.7-24.3-24.9-0.6-13.9-0.6-28.5-0.6-42.4V759h-35.8c-13.9 0-26.1 0.6-38.8 0-6.7 0.6-13.9-2.4-19.4-7.3-4.9-4.9-7.9-11.5-7.9-18.2-1.2-12.7 9.7-26.1 23-26.7 14.6-1.2 30.3-0.6 44.3-0.6h35.8v-49.1h-4.2c-10.3-0.6-21.2-0.6-30.9 0-18.2 0.6-35.8 1.2-51.5-3-12.1-4.2-15.8-15.8-15.8-24.3s4.2-20 15.2-24.3c12.7-3 24.9-2.4 38.2-1.8 7.3 0 15.8 0.6 23 0h1.2l14.6-14.6-3-3c-11.5-12.1-23.6-23.6-34-34-15.2-15.2-32.1-32.1-48.5-49.1-6.1-5.5-7.9-13.3-6.1-22.4 2.4-9.7 8.5-17.6 17-20.6h0.6c10.9-5.5 24.3 1.8 31.5 9.7L527 551l3-3 35.8-35.8 1.8-1.8c12.7-12.7 25.5-26.1 38.2-38.2 12.1-12.7 21.8-15.8 32.1-12.7 8.5 1.8 15.8 9.7 18.2 18.8 2.4 8.5 0 17.6-6.1 23-12.7 13.3-26.1 26.7-38.8 39.4l-1.2 1.2c-14.6 13.9-29.1 29.1-43.7 44.3l-2.4 2.4 12.9 15.8zM385.1 120.9c4.9-15.2 21.2-23.6 36.4-18.2l336.6 111c7.3 2.4 13.3 7.9 17 14.6 3.6 6.7 3.6 15.2 1.2 22.4l-9.1 27.3s-3.6 20 18.2 26.7c21.8 6.7 34.6-3 34.6-3l10.9-32.1c15.2-44.9-9.7-94-54.6-108.5l-336-112.9c-21.8-7.3-45.5-5.5-65.5 4.9-20.6 10.3-35.8 27.9-43.1 49.7-0.6 1.8-1.2 16.4 23.6 23.6 24.4 7.3 29.8-5.5 29.8-5.5z" p-id="16788"></path><path d="M232.9 189.4c4.2-17.6 15.8-33.4 30.9-42.4 10.9-6.7 23-10.3 35.8-10.3 5.5 0 10.9 0.6 16.4 1.8l57.6 13.9 299.6 73.4c17.6 4.2 32.7 15.8 42.4 30.9 4.9 8.5 8.5 18.2 9.7 27.9 0 0 0.6 5.5 0.6 10.3 0 2.4-3.6 6.7-6.1 6.7H210.5c-4.2 0-4.9-6.7-4.9-6.7l27.3-105.5z" p-id="16789"></path></svg>