<?xml version="1.0" standalone="no"?><!DOCTYPE svg PUBLIC "-//W3C//DTD SVG 1.1//EN" "http://www.w3.org/Graphics/SVG/1.1/DTD/svg11.dtd"><svg t="1563352001436" class="icon" viewBox="0 0 1024 1024" version="1.1" xmlns="http://www.w3.org/2000/svg" p-id="1802" xmlns:xlink="http://www.w3.org/1999/xlink" width="200" height="200"><defs><style type="text/css"></style></defs><path d="M477.57881 556.820525v263.571446h66.409787V557.063784c83.559568-16.663262 140.968761-94.019717 132.697945-178.917211-8.270816-84.897494-79.42416-149.726096-164.686542-150.090984-85.262383-0.364889-156.902245 63.977194-165.781209 148.753058-8.878964 84.897494 47.922081 162.618838 131.360019 180.011878zM113.054757 146.685355c133.306093 0 266.125668-44.273192 398.580354-132.819575 132.697945 88.546383 265.51752 132.819575 398.580354 132.819575v313.4396c0 177.700915-88.789642 343.603753-236.569664 442.123768l-161.88906 107.885497-161.889061-107.885497C201.8444 803.728709 113.054757 637.82587 113.054757 460.246585V146.685355zM511.635111 493.816368c-54.976601 0-99.614681-44.638081-99.614681-99.614681s44.638081-99.614681 99.614681-99.614681 99.614681 44.638081 99.614681 99.614681-44.638081 99.614681-99.614681 99.614681z m0 0" p-id="1803"></path></svg>