<?xml version="1.0" standalone="no"?><!DOCTYPE svg PUBLIC "-//W3C//DTD SVG 1.1//EN" "http://www.w3.org/Graphics/SVG/1.1/DTD/svg11.dtd"><svg t="1568793236601" class="icon" viewBox="0 0 1024 1024" version="1.1" xmlns="http://www.w3.org/2000/svg" p-id="24970" xmlns:xlink="http://www.w3.org/1999/xlink" width="200" height="200"><defs><style type="text/css"></style></defs><path d="M127.167634 103.873097l290.203063 0 27.573394 0 136.449463 0 153.7536 0 164.019931 0c26.561097 0 48.294766-19.485257 48.294766-43.303497 0-23.815314-21.733669-43.302034-48.294766-43.302034L735.151543 17.267566 581.393554 17.267566l-136.449463 0-27.573394 0L127.167634 17.267566c-26.559634 0-48.293303 19.485257-48.293303 43.302034C78.872869 84.38784 100.606537 103.873097 127.167634 103.873097L127.167634 103.873097z" p-id="24971"></path><path d="M417.133714 494.855314 416.994743 494.931383 417.174674 494.931383 417.133714 494.855314Z" p-id="24972"></path><path d="M975.3088 190.695131 48.294766 190.695131C21.732206 190.695131 0 212.4288 0 238.989897l0 129.328274 0 461.96736 0 129.328274C0 986.179291 21.732206 1007.908571 48.294766 1007.908571l927.015497 0c26.561097 0 48.294766-21.72928 48.294766-48.294766l0-129.328274L1023.605029 368.318171l0-129.328274C1023.603566 212.4288 1001.87136 190.695131 975.3088 190.695131L975.3088 190.695131zM670.68928 643.639589 670.68928 643.639589c26.56256 0 48.294766 19.482331 48.294766 43.300571s-21.732206 43.303497-48.294766 43.303497l-115.586194 0 0 104.639634c0 26.56256-19.485257 48.297691-43.30496 48.297691-23.815314 0-43.302034-21.733669-43.302034-48.297691l0-104.639634-115.587657 0c-26.56256 0-48.294766-19.483794-48.294766-43.303497 0-23.812389 21.730743-43.300571 48.294766-43.300571l115.587657 0 0-62.102674-115.587657 0c-26.56256 0-48.294766-19.485257-48.294766-43.30496 0-23.815314 21.730743-43.303497 48.294766-43.303497l64.08192 0-23.669029-45.156937-0.048274 0.026331-28.056137-53.52448c-12.334811-23.524206-5.162423-51.821714 15.930514-62.877989 21.0944-11.054811 48.441051-0.852846 60.772937 22.67136l22.570423 43.062126c0.396434 0.678766 0.776777 1.369234 1.148343 2.071406l23.221394 44.296777 0.141897-0.074606 23.465691 44.773669 23.467154-44.773669 0.140434 0.074606 23.219931-44.296777c0.370103-0.705097 0.759223-1.398491 1.155657-2.080183l22.566034-43.050423c12.333349-23.525669 39.675611-33.726171 60.771474-22.67136 21.092937 11.057737 28.260937 39.353783 15.93344 62.877989l-28.056137 53.52448-0.049737-0.026331-23.669029 45.156937-0.14336-0.074606-0.033646 0.074606 0.178469 0 0.001463 0 62.741943 0c26.56256 0 48.294766 19.48672 48.294766 43.302034s-21.732206 43.303497-48.294766 43.303497l-115.586194 0 0 62.1056 115.586194 0L670.692206 643.639589 670.68928 643.639589z" p-id="24973"></path></svg>