<?xml version="1.0" standalone="no"?><!DOCTYPE svg PUBLIC "-//W3C//DTD SVG 1.1//EN" "http://www.w3.org/Graphics/SVG/1.1/DTD/svg11.dtd"><svg t="1558516085905" class="icon" style="" viewBox="0 0 1024 1024" version="1.1" xmlns="http://www.w3.org/2000/svg" p-id="2146" xmlns:xlink="http://www.w3.org/1999/xlink" width="128" height="128"><defs><style type="text/css"></style></defs><path d="M909.872821 194.218787v147.0075a56.871048 56.871048 0 1 0 113.742096 0V56.998992A56.871048 56.871048 0 0 0 966.743869 0.063972h-284.291267a56.871048 56.871048 0 1 0 0 113.742096h147.0075l-187.245845 187.245845a56.871048 56.871048 0 0 0 80.412718 80.412719l187.245846-187.245845z m-80.412719 715.654006h-147.0075a56.871048 56.871048 0 1 0 0 113.742096h284.291267c31.410219 0 56.871048-25.460829 56.871048-56.871048v-284.291267a56.871048 56.871048 0 1 0-113.742096 0v147.0075l-187.245846-187.245845a56.871048 56.871048 0 0 0-80.412718 80.412718l187.245845 187.245846zM194.218815 113.806068h147.0075a56.871048 56.871048 0 1 0 0-113.742096H56.99902A56.871048 56.871048 0 0 0 0.064 56.93502v284.291267a56.871048 56.871048 0 1 0 113.742096 0V194.218787l187.245846 187.245845a56.871048 56.871048 0 0 0 80.412718-80.412719L194.218815 113.806068zM113.806096 829.460074v-147.0075a56.871048 56.871048 0 1 0-113.742096 0v284.291267c0 31.410219 25.460829 56.871048 56.871048 56.871048h284.291267a56.871048 56.871048 0 1 0 0-113.742096H194.218815l187.245845-187.245846a56.871048 56.871048 0 0 0-80.412718-80.412718l-187.245846 187.245845z" p-id="2147"></path></svg>