<?xml version="1.0" standalone="no"?><!DOCTYPE svg PUBLIC "-//W3C//DTD SVG 1.1//EN" "http://www.w3.org/Graphics/SVG/1.1/DTD/svg11.dtd"><svg t="1557995023517" class="icon" style="" viewBox="0 0 1024 1024" version="1.1" xmlns="http://www.w3.org/2000/svg" p-id="818" xmlns:xlink="http://www.w3.org/1999/xlink" width="128" height="128"><defs><style type="text/css"></style></defs><path d="M592.795141 942.076152L592.795141 686.38570201 432.057273 686.38570201l0 256.37299499c-5.02341001 0.258896-9.030677 0.647753-13.038968 0.64775299-75.894528 0-151.827941 0.040932-227.727585 0-26.07998201 0-43.617403-16.72798601-43.733037-44.430932-0.527003-105.19996999-0.366344-210.48692199 0.116657-315.686892 0-5.547343 4.213975-12.641925 8.465812-16.42815799 68.686359-60.686151 137.733944-120.984469 206.664873-181.32985799 45.884027-40.16886199 91.729168-80.340793 137.612171-120.46769901 3.565199-3.097548 7.213285-6.106068 11.703553-9.93937299 27.37753399 23.916712 54.633295 47.699372 81.849146 71.52603299 89.782839 78.58070601 179.44902201 157.332305 269.47643099 235.61215899 9.679453 8.383948 13.809517 16.898879 13.72765301 30.44642901-0.565888 99.871615-0.406253 199.778023-0.200568 299.602565 0.03786201 18.152429-4.213975 33.936927-19.321044 43.959188-5.467525 3.64910999-12.39223801 6.79373001-18.668175 6.835685-80.55159399 0.429789-161.103188 0.210801-241.609757 0.16986899C596.199681 943.27751399 594.978876 942.717765 592.795141 942.076152L592.795141 942.076152zM713.76426 234.18567001c0-42.192961-0.039909-81.158415 0-120.08498201 0.03786201-24.85815399 5.627161-30.79332999 28.995381-30.83528599 36.287461 0 72.573899-0.040932 108.86136 0.041956 18.71115399 0.047072 25.186635 7.05262599 25.230638 28.08566199 0.083911 83.30735799 0.282433 166.66383401-0.24457 249.971192-0.081864 12.859889 3.321652 21.1149 12.834306 29.287023 39.774889 33.97888199 78.772065 68.901253 117.974925 103.609753 19.23304 17.033955 19.721157 25.32989799 3.521197 45.591361-9.79713399 12.300141-19.393699 24.816199-29.278837 37.075407-12.147668 15.178701-22.193465 16.12628199-36.730553 3.221368-139.192156-123.352399-278.385335-246.78768601-417.62149299-370.181017-4.818749-4.25695401-9.758248-8.432043-15.39154901-13.33675-31.302937 27.702945-62.36642 55.09992199-93.348038 82.579787C305.57867401 379.34165401 192.588273 479.50695799 79.596849 579.63133001c-15.307637 13.58950601-24.821315 12.777001-37.699624-3.22546101-10.656711-13.28967799-21.262256-26.66736-31.751145-40.079834-12.231579-15.656585-11.74346199-25.765827 3.037173-38.9675 63.054081-56.042387 126.27496201-111.870904 189.450816-167.782308 84.193541-74.5366 168.470993-148.983149 252.626671-223.647663 38.187741-33.84994601 75.36650199-33.84994601 113.639177 0.257873 45.235251 40.29779799 90.597391 80.429821 135.91041301 120.597659C706.96132 228.68130599 709.227943 230.441393 713.76426 234.18567001L713.76426 234.18567001zM713.76426 234.18567001" p-id="819"></path></svg>