<?xml version="1.0" standalone="no"?><!DOCTYPE svg PUBLIC "-//W3C//DTD SVG 1.1//EN" "http://www.w3.org/Graphics/SVG/1.1/DTD/svg11.dtd"><svg t="1563327089686" class="icon" viewBox="0 0 1024 1024" version="1.1" xmlns="http://www.w3.org/2000/svg" p-id="1861" xmlns:xlink="http://www.w3.org/1999/xlink" width="200" height="200"><defs><style type="text/css"></style></defs><path d="M340.6652507 173.99233877l11.21565469 82.5042762L593.02969685 419.17541262c34.96727325 23.82846293 43.95912419 71.51915235 20.1655899 106.45266091-23.84592669 34.9661093-71.5121664 44.03596743-106.47943964 20.19004074L265.57520555 383.19054507l-80.9173413 19.74178702-164.98177366-112.40104391c-10.15614578-6.93104867-15.18124373-19.27723349-12.71643022-31.32885106 2.44851257-12.05278265 11.9142309-21.44980765 23.97516345-23.84592669l89.71941205-17.7939217c16.33738866-3.25886179 27.06054599-18.98383133 24.09508637-35.38176228l-16.25938034-89.98603548c-2.18072519-12.10401109 3.10401024-24.32910905 13.42315748-31.01914908 10.32031118-6.6900389 23.63984669-6.55148829 33.80297841 0.39702414L340.6652507 173.99233877z" p-id="1862"></path><path d="M176.05488754 450.38317682l14.77606855-3.58602866c-1.06067285 11.34489145-1.74178531 22.82833351-1.74178532 34.44916224 0 199.90480327 162.61941817 362.53237248 362.54052238 362.53237248 199.88850347 0 362.52422144-162.62756807 362.52422144-362.53237248 0-199.92226816-162.63688306-362.54983623-362.52422144-362.54983623-60.75175139 0-117.96986766 15.20802247-168.30001379 41.70854172l-1.61254855-11.77684423-70.6063451-48.0877147c69.66675911-44.13958941 151.96379022-70.00323982 240.51890744-70.00323982 248.90765312 0 450.70909326 201.76767545 450.70909327 450.70909326S800.53851022 931.97286855 551.6308571 931.97286855c-248.94141781 0-450.73470805-201.78514034-450.73470805-450.72655815 0-26.38059747 2.72445099-52.08823239 7.07891428-77.21022691L176.05488754 450.38317682z" p-id="1863"></path><path d="M551.6308571 314.65431723c-10.38784057 0-20.50905771 1.10258745-30.37995121 2.89676629l-90.11643734-60.81345877c35.86378069-19.27606841 76.88306005-30.2600283 120.49638742-30.2600283 140.68759211 0 254.76289309 114.03920725 254.76289308 254.76987904 0 140.7132069-114.07530098 254.75125021-254.76289308 254.7512502-140.71204295 0-254.78617885-114.03804331-254.78617885-254.7512502 0-7.7413979 0.49133227-15.39780153 1.17244473-22.98434902l91.78720028 61.91721131c17.62160526 73.08862237 83.38331875 127.64399502 161.82536989 127.64399502 91.85007275 0 166.57569337-74.71048477 166.57569337-166.57685731C718.20655047 389.36363805 643.48092985 314.65431723 551.6308571 314.65431723z" p-id="1864"></path></svg>