<?xml version="1.0" standalone="no"?><!DOCTYPE svg PUBLIC "-//W3C//DTD SVG 1.1//EN" "http://www.w3.org/Graphics/SVG/1.1/DTD/svg11.dtd"><svg t="1561089496470" class="icon" viewBox="0 0 1024 1024" version="1.1" xmlns="http://www.w3.org/2000/svg" p-id="4034" xmlns:xlink="http://www.w3.org/1999/xlink" width="200" height="200"><defs><style type="text/css"></style></defs><path d="M1014.10895 377.5L758.40895 67.8c-8-9.8-19.9-15.5-32.5-15.5H297.20895c-12 0-24.5 5.7-32.5 15.5L9.50895 377.5c-13.1 16.1-12.6 39.7 1.1 55.2L481.00895 958c16.5 18.4 45.7 18.4 62.8 0L1013.00895 433.3c14.2-16.1 14.8-39.7 1.1-55.8z m-248.9 9.2c0 5.7-3.4 9.8-8.6 9.8H748.00895c-12.6 0-11.4 2.3-17.7 9.8-43.9 58.6-218 291.4-218 291.4S337.70895 465.5 293.70895 406.3c-6.3-7.5-5.1-9.8-17.7-9.8h-8.6c-5.1 0-8.6-4-8.6-9.8V339c0-5.7 4-9.8 8.6-9.8h87.3c5.1 0 11.4 0.6 17.7 9.8l139.8 194.8L651.60895 339c5.7-9.2 12.6-9.8 17.7-9.8h87.3c5.1 0 8.6 4 8.6 9.8v47.7z" p-id="4035"></path></svg>