<?xml version="1.0" standalone="no"?><!DOCTYPE svg PUBLIC "-//W3C//DTD SVG 1.1//EN" "http://www.w3.org/Graphics/SVG/1.1/DTD/svg11.dtd"><svg t="1563351944307" class="icon" viewBox="0 0 1024 1024" version="1.1" xmlns="http://www.w3.org/2000/svg" p-id="1233" xmlns:xlink="http://www.w3.org/1999/xlink" width="200" height="200"><defs><style type="text/css"></style></defs><path d="M902.4 64H140.8c-25.6 0-44.8 19.2-44.8 44.8v812.8c0 12.8 12.8 19.2 25.6 12.8l160-140.8 6.4-6.4h614.4c25.6 0 44.8-19.2 44.8-44.8V108.8c0-25.6-19.2-44.8-44.8-44.8zM313.6 275.2h256c19.2 0 38.4 19.2 38.4 32 0 19.2-19.2 38.4-32 38.4H320c-19.2 0-38.4-19.2-38.4-38.4s12.8-32 32-32z m403.2 281.6H313.6c-19.2 0-32-19.2-32-32 0-19.2 19.2-32 32-32h403.2c19.2 0 32 19.2 32 32 0 19.2-12.8 32-32 32z" p-id="1234"></path></svg>