<?xml version="1.0" standalone="no"?><!DOCTYPE svg PUBLIC "-//W3C//DTD SVG 1.1//EN" "http://www.w3.org/Graphics/SVG/1.1/DTD/svg11.dtd"><svg t="1563351957862" class="icon" viewBox="0 0 1024 1024" version="1.1" xmlns="http://www.w3.org/2000/svg" p-id="1344" xmlns:xlink="http://www.w3.org/1999/xlink" width="200" height="200"><defs><style type="text/css"></style></defs><path d="M931.55555556 204.8h-61.44v689.49333333H583.39555556c0 40.96 27.30666667 75.09333333 61.44 75.09333334h286.72c34.13333333 0 61.44-34.13333333 61.44-75.09333334v-614.4c0-40.96-27.30666667-75.09333333-61.44-75.09333333z m0 0" p-id="1345"></path><path d="M760.88888889 47.78666667H119.18222223c-34.13333333 0-61.44 34.13333333-61.44 75.09333333v771.41333333c0 40.96 27.30666667 75.09333333 61.44 75.09333334H760.88888889c34.13333333 0 61.44-34.13333333 61.44-75.09333334V129.70666667c-6.82666667-47.78666667-34.13333333-81.92-61.44-81.92zM180.62222223 245.76h232.10666666v232.10666667H180.62222223V245.76z m464.21333333 532.48H180.62222223v-75.09333333h464.21333333v75.09333333z m0-150.18666667H180.62222223V552.96h464.21333333v75.09333333z m0-157.01333333H467.34222223V395.94666667h170.66666666l6.82666667 75.09333333z m0-150.18666667H467.34222223V245.76h170.66666666l6.82666667 75.09333333z m0 0" p-id="1346"></path></svg>