<?xml version="1.0" standalone="no"?><!DOCTYPE svg PUBLIC "-//W3C//DTD SVG 1.1//EN" "http://www.w3.org/Graphics/SVG/1.1/DTD/svg11.dtd"><svg t="1564985751045" class="icon" viewBox="0 0 1075 1024" version="1.1" xmlns="http://www.w3.org/2000/svg" p-id="6124" xmlns:xlink="http://www.w3.org/1999/xlink" width="209.9609375" height="200"><defs><style type="text/css"></style></defs><path d="M626.2784 51.968h-201.728c-24.7296 0-44.544 22.016-44.544 49.2032 0 27.2896 19.8144 49.3568 44.544 49.3568h202.9568c23.552 0 43.3152-22.0672 43.3152-49.3568 0-27.1872-19.7632-49.2032-44.544-49.2032z m219.0336 32.8192h-100.4544c1.024 5.4272 1.5872 10.8544 1.5872 16.384 0.0512 41.472-30.0032 82.2272-65.7408 82.2272H372.0704c-37.632 0-67.7376-40.8064-67.7376-82.2272 0.0512-5.5296 0.6656-10.9568 1.6896-16.384H204.288c-81.7152 0-101.7856 46.336-101.7856 113.152v662.0672c0 71.7824 28.7232 111.9744 107.9808 111.9744h628.5824c79.2576 0 117.76-31.488 117.76-111.9232V197.9904c0-66.8672-36.0448-113.152-111.616-113.152z m-103.2192 653.6704H305.2544c-16.0768 0-32.1536-19.7632-32.1536-35.84a30.208 30.208 0 0 1 29.696-29.8496h435.6096a31.232 31.232 0 0 1 30.9248 29.7984c0 16.1792-11.1104 35.8912-27.2384 35.8912zM743.936 563.2H307.0464c-16.0768 0-26.368-17.3056-26.368-33.4336s13.6192-32.256 29.696-32.256h435.6096c16.0768 0 29.696 14.9504 30.9248 32.256 0 16.128-16.9472 33.4336-33.024 33.4336z m0-180.0192H307.0464c-16.0768 0-26.368-17.3056-26.368-33.4336s13.6192-32.256 29.696-32.256h435.6096c16.0768 0 29.696 14.9504 30.9248 32.256 0 16.128-16.9472 33.4336-33.024 33.4336z" p-id="6125"></path></svg>