<?xml version="1.0" standalone="no"?><!DOCTYPE svg PUBLIC "-//W3C//DTD SVG 1.1//EN" "http://www.w3.org/Graphics/SVG/1.1/DTD/svg11.dtd"><svg t="1563351975381" class="icon" viewBox="0 0 1024 1024" version="1.1" xmlns="http://www.w3.org/2000/svg" p-id="1456" xmlns:xlink="http://www.w3.org/1999/xlink" width="200" height="200"><defs><style type="text/css"></style></defs><path d="M177.493 320.853c-75.311-0.225-136.308-61.221-136.533-136.533 0.225-75.312 61.222-136.308 136.533-136.533 75.312 0.225 136.308 61.221 136.534 136.533-0.226 75.312-61.222 136.308-136.534 136.533zM656.384 184.32c-0.225-75.312-61.222-136.308-136.533-136.533-75.312 0.225-136.308 61.221-136.534 136.533 0.226 75.312 61.222 136.308 136.534 136.533 75.311-0.225 136.308-61.221 136.533-136.533z m342.357 0c-0.225-75.312-61.221-136.308-136.533-136.533-75.312 0.225-136.308 61.221-136.533 136.533 0.225 75.312 61.221 136.308 136.533 136.533 75.312-0.225 136.308-61.221 136.533-136.533zM314.027 512c-0.226-75.312-61.222-136.308-136.534-136.533C102.182 375.692 41.185 436.688 40.96 512c0.225 75.312 61.222 136.308 136.533 136.533 75.312-0.225 136.308-61.221 136.534-136.533z m342.357 0c-0.225-75.312-61.222-136.308-136.533-136.533-75.312 0.225-136.308 61.221-136.534 136.533 0.226 75.312 61.222 136.308 136.534 136.533 75.311-0.225 136.308-61.221 136.533-136.533z m342.357 0c-0.225-75.312-61.221-136.308-136.533-136.533-75.312 0.225-136.308 61.221-136.533 136.533 0.225 75.312 61.221 136.308 136.533 136.533 75.312-0.225 136.308-61.221 136.533-136.533zM314.027 839.68c-0.226-75.312-61.222-136.308-136.534-136.533-75.311 0.225-136.308 61.221-136.533 136.533 0.225 75.312 61.222 136.308 136.533 136.533 75.312-0.225 136.308-61.221 136.534-136.533z m342.357 0c-0.225-75.312-61.222-136.308-136.533-136.533-75.312 0.225-136.308 61.221-136.534 136.533 0.226 75.312 61.222 136.308 136.534 136.533 75.311-0.225 136.308-61.221 136.533-136.533z m342.357 0c-0.225-75.312-61.221-136.308-136.533-136.533-75.312 0.225-136.308 61.221-136.533 136.533 0.225 75.312 61.221 136.308 136.533 136.533 75.312-0.225 136.308-61.221 136.533-136.533z" p-id="1457"></path></svg>