<?xml version="1.0" standalone="no"?><!DOCTYPE svg PUBLIC "-//W3C//DTD SVG 1.1//EN" "http://www.w3.org/Graphics/SVG/1.1/DTD/svg11.dtd"><svg t="1563351990440" class="icon" viewBox="0 0 1024 1024" version="1.1" xmlns="http://www.w3.org/2000/svg" p-id="1691" xmlns:xlink="http://www.w3.org/1999/xlink" width="200" height="200"><defs><style type="text/css"></style></defs><path d="M846.4 954h-223c-40.9 0-74.3-33.5-74.3-74.3v-223c0-40.9 33.5-74.3 74.3-74.3h223c40.9 0 74.3 33.5 74.3 74.3v223c0.1 40.8-33.4 74.3-74.3 74.3z m98.8-600.6L787.5 511.1c-28.7 28.7-76.5 28.7-105.1 0L524.6 353.4c-28.7-28.7-28.7-76.5 0-105.1L682.3 90.5c28.7-28.7 76.5-28.7 105.1 0l157.7 157.7c28.8 29.3 28.8 76.5 0.1 105.2zM389.7 954h-223c-40.9 0-74.3-33.5-74.3-74.3v-223c0-40.9 33.5-74.3 74.3-74.3h223c40.9 0 74.3 33.5 74.3 74.3v223c0.1 40.8-33.4 74.3-74.3 74.3z m0-467.3h-223c-40.9 0-74.3-33.5-74.3-74.3v-223c0-40.9 33.5-74.3 74.3-74.3h223c40.9 0 74.3 33.5 74.3 74.3v223c0.1 40.8-33.4 74.3-74.3 74.3z m0 0" p-id="1692"></path></svg>