<?xml version="1.0" standalone="no"?><!DOCTYPE svg PUBLIC "-//W3C//DTD SVG 1.1//EN" "http://www.w3.org/Graphics/SVG/1.1/DTD/svg11.dtd"><svg t="1565945704390" class="icon" viewBox="0 0 1024 1024" version="1.1" xmlns="http://www.w3.org/2000/svg" p-id="13827" xmlns:xlink="http://www.w3.org/1999/xlink" width="200" height="200"><defs><style type="text/css"></style></defs><path d="M814.648889 86.129778h-110.876445a42.666667 42.666667 0 1 1 0-85.333334h223.943112a42.666667 42.666667 0 0 1 42.666666 42.666667v207.047111a42.666667 42.666667 0 0 1-85.333333 0V138.894222c-73.272889 61.269333-172.942222 121.144889-299.064889 180.167111-161.422222 75.548444-326.286222 125.525333-494.535111 149.845334a42.666667 42.666667 0 0 1-12.231111-84.48c159.857778-23.096889 316.672-70.599111 470.584889-142.648889 111.132444-51.996444 199.452444-104.021333 264.846222-155.648zM170.666667 682.666667v256h85.333333v-256H170.666667z m-56.888889-85.333334h199.111111a28.444444 28.444444 0 0 1 28.444444 28.444445v369.777778a28.444444 28.444444 0 0 1-28.444444 28.444444H113.777778a28.444444 28.444444 0 0 1-28.444445-28.444444V625.777778a28.444444 28.444444 0 0 1 28.444445-28.444445z m369.777778-28.444444v369.777778h85.333333V568.888889h-85.333333z m-56.888889-85.333333h199.111111a28.444444 28.444444 0 0 1 28.444444 28.444444v483.555556a28.444444 28.444444 0 0 1-28.444444 28.444444h-199.111111a28.444444 28.444444 0 0 1-28.444445-28.444444V512a28.444444 28.444444 0 0 1 28.444445-28.444444z m369.777777-28.444445v483.555556h85.333334V455.111111h-85.333334z m-56.888888-85.333333h199.111111a28.444444 28.444444 0 0 1 28.444444 28.444444v597.333334a28.444444 28.444444 0 0 1-28.444444 28.444444h-199.111111a28.444444 28.444444 0 0 1-28.444445-28.444444V398.222222a28.444444 28.444444 0 0 1 28.444445-28.444444z" p-id="13828"></path></svg>