<?xml version="1.0" standalone="no"?><!DOCTYPE svg PUBLIC "-//W3C//DTD SVG 1.1//EN" "http://www.w3.org/Graphics/SVG/1.1/DTD/svg11.dtd"><svg t="1564985904162" class="icon" viewBox="0 0 1024 1024" version="1.1" xmlns="http://www.w3.org/2000/svg" p-id="14205" xmlns:xlink="http://www.w3.org/1999/xlink" width="200" height="200"><defs><style type="text/css"></style></defs><path d="M874.637771 0.003H149.359619c-42.714891 0-78.993799 17.041957-106.714728 44.835886C17.044957 72.559815 0.003 108.839723 0.003 149.359619v725.280152a148.479622 148.479622 0 0 0 149.356619 149.356619h725.278152a148.479622 148.479622 0 0 0 149.357619-149.356619V149.359619A148.479622 148.479622 0 0 0 874.637771 0.003z m-63.998837 676.273276c0 23.40594-19.162951 40.520897-40.519897 40.520897H492.761744c-17.041957 38.399902-53.320864 63.999837-98.08375 63.999837-44.836886 0-81.114793-25.599935-98.15675-63.999837H253.879353a40.519897 40.519897 0 0 1-40.520897-40.519897v-2.194994c0-23.40494 19.162951-40.447897 40.519897-40.447897h42.642891c17.041957-38.472902 53.393864-64.071837 98.15675-64.071837s81.041793 25.599935 98.08375 63.999837H770.118037c23.47894 0 40.520897 19.235951 40.520897 40.592897v2.120994z m0-319.997184c0 23.40594-19.162951 40.519897-40.519897 40.519897h-42.642891c-17.041957 38.399902-53.393864 63.999837-98.15675 63.999837s-81.041793-25.599935-98.08375-63.999837h-277.429293a40.519897 40.519897 0 0 1-40.519897-40.519897v-2.193995c0-23.40594 19.162951-40.520897 40.519897-40.520896h277.356293c17.041957-38.326902 53.319864-63.926837 98.08375-63.926837 44.835886 0 81.114793 25.599935 98.15675 63.926837h42.641891c23.47894 0 40.520897 19.235951 40.520897 40.593896v2.120995z" p-id="14206"></path></svg>