<?xml version="1.0" standalone="no"?><!DOCTYPE svg PUBLIC "-//W3C//DTD SVG 1.1//EN" "http://www.w3.org/Graphics/SVG/1.1/DTD/svg11.dtd"><svg t="1563352011097" class="icon" viewBox="0 0 1024 1024" version="1.1" xmlns="http://www.w3.org/2000/svg" p-id="1913" xmlns:xlink="http://www.w3.org/1999/xlink" width="200" height="200"><defs><style type="text/css"></style></defs><path d="M903.15347 562.25c2.156-16.5 3.719-32.813 3.719-50.25 0-17.375-1.563-33.75-3.719-50.187l111.156-84.437c9.937-7.625 12.593-21.5 6.28-32.75L915.34147 167.44c-6.406-11.25-20.563-15.313-32.187-11.25l-130.999 51.187c-27.375-20.5-56.813-37.375-88.938-50.125l-20.03-135.748c-1.531-12.25-12.594-21.5-25.843-21.5H406.87647c-13.25 0-24.281 9.25-25.844 21.5l-20.031 135.749c-32.062 12.75-61.562 30.125-88.937 50.125L141.06647 156.19c-12.156-4.625-25.75 0-32.188 11.25L3.62947 344.626c-6.813 11.25-3.656 25.125 6.313 32.75l111.062 84.437c-2.094 16.438-3.656 33.313-3.656 50.187 0 16.938 1.563 33.75 3.656 50.25L9.94247 646.687c-9.969 7.625-12.594 21.5-6.313 32.75l105.249 177.187c6.438 11.188 20.563 15.25 32.188 11.188l130.999-51.125c27.375 20.438 56.875 37.375 88.937 50.063l20.031 135.749c1.563 12.312 12.594 21.499 25.844 21.499h210.467c13.249 0 24.312-9.188 25.843-21.499l20.031-135.749c32.125-12.688 61.563-30.063 88.938-50.063l130.999 51.125c12.093 4.688 25.78 0 32.187-11.188l105.249-177.187c6.313-11.25 3.656-25.125-6.28-32.75L903.15347 562.25zM512.12547 691.249c-101.592 0-184.279-80.437-184.279-179.249 0-98.749 82.687-179.186 184.279-179.186 101.5 0 184.249 80.437 184.249 179.186 0 98.813-82.749 179.249-184.249 179.249z" p-id="1914"></path></svg>