<?xml version="1.0" standalone="no"?><!DOCTYPE svg PUBLIC "-//W3C//DTD SVG 1.1//EN" "http://www.w3.org/Graphics/SVG/1.1/DTD/svg11.dtd"><svg t="1566630895432" class="icon" viewBox="0 0 1024 1024" version="1.1" xmlns="http://www.w3.org/2000/svg" p-id="1055" xmlns:xlink="http://www.w3.org/1999/xlink" width="200" height="200"><defs><style type="text/css"></style></defs><path d="M342.69866667 263.81274075c0-93.44948148 75.85185185-169.30133333 169.30133333-169.30133334s169.30133333 75.73048889 169.30133333 169.30133334c0 93.44948148-75.85185185 169.30133333-169.30133333 169.30133333s-169.30133333-75.85185185-169.30133333-169.30133333zM599.13860741 455.56622222l-86.28906666 119.42115556-86.28906667-119.42115556C324.85831111 492.94601482 252.28325925 594.52681482 252.28325925 712.12752592v162.14091853c5.21860741 30.34074075 119.05706667 55.22014815 260.5662815 55.22014814 139.81013333 0 253.64859259-25.00077037 258.74583703-55.22014814V712.12752592c0.12136297-117.60071111-72.45368889-219.18151111-172.45677037-256.5613037z" p-id="1056"></path><path d="M545.86026667 435.54133333c-7.5245037-2.54862222-15.04900741-2.54862222-22.57351112-2.54862222-7.5245037 0-13.59265185 0-21.11715555 2.54862222 0 0-1.45635555 25.12213333 8.98085925 42.5984h25.6075852c0.12136297 0 9.10222222-15.04900741 9.10222222-42.5984zM495.00918518 478.13973333h36.16616297l14.68491852 38.83614815-32.768 28.88438519-34.95253334-28.88438519 16.86945185-38.83614815zM230.31656297 568.43377778l21.96669628-29.97665186-10.92266666-37.74388147h-23.18032592l-11.04402964 37.74388147 23.18032594 29.97665186z" p-id="1057"></path><path d="M296.7021037 500.71324445l-66.62826667 85.07543703-68.44871111-85.07543703C82.37511111 527.89854815 26.54814815 599.38133333 26.54814815 684.45677037v115.65890371c3.64088889 22.08805925 93.69220741 39.07887408 203.52568888 39.07887407h1.82044445V711.64207408c0-78.27911111 34.22435555-149.64053333 88.23087407-200.73434075-7.28177778-5.09724445-14.44219259-6.79632592-23.42305185-10.19448888z" p-id="1058"></path><path d="M244.15194075 500.71324445s8.25268148-8.00995555 8.25268147-20.9957926c-8.25268148-1.57771852-14.32082963-1.57771852-22.57351111-1.57771852-8.25268148 0-14.32082963 0-22.57351111 1.57771852 0 0 0 11.28675555 10.31585185 20.9957926h26.5784889z" p-id="1059"></path><path d="M94.26868148 353.98542222c0-68.57007408 55.58423703-124.15431111 124.15431111-124.15431111s124.15431111 55.58423703 124.15431111 124.15431111-55.58423703 124.15431111-124.15431111 124.15431111-124.15431111-55.58423703-124.15431111-124.15431111zM811.64515555 500.71324445s5.09724445-8.00995555 5.09724445-20.9957926c-4.12634075-1.57771852-7.16041482-1.57771852-11.28675555-1.57771852-4.12634075 0-7.16041482 0-11.28675556 1.57771852 0 0 0 11.28675555 5.09724444 20.9957926h12.37902222z" p-id="1060"></path><path d="M795.74660741 568.43377778l21.11715556-29.97665186-11.04402964-37.74388147H782.63940741l-10.92266666 37.74388147 24.02986666 29.97665186zM681.30133333 353.98542222c0-68.57007408 55.58423703-124.15431111 124.15431112-124.15431111s124.15431111 55.58423703 124.1543111 124.15431111-55.58423703 124.15431111-124.1543111 124.15431111-124.15431111-55.58423703-124.15431112-124.15431111z" p-id="1061"></path><path d="M872.81208889 500.71324445l-61.53102222 85.07543703-63.10874075-85.07543703c-6.67496297 3.39816297-14.92764445 5.09724445-21.6026074 10.19448888 49.88017778 50.97244445 81.43454815 122.45522963 81.43454815 200.73434075v127.55247407h3.2768c101.33807408 0 182.89398518-16.99081482 186.17078518-39.07887407v-115.65890371c0-85.07543703-51.57925925-156.55822222-124.63976296-183.74352592z" p-id="1062"></path></svg>